# xmcd CD database file
#
# Track frame offsets:
#	150
#	14683
#	39611
#	63300
#	82652
#	113109
#	129660
#	148940
#	165717
#	181738
#	199452
#	235429
#
# Disc length: 3406 seconds
#
# Revision: 5
# Processed by: cddbd v1.5PL3 Copyright (c) Steve Scherf et al.
# Submitted via: CDex 1.51
#
DISCID=a90d4c0c
DTITLE=Ellen Whyte and Reflex Blues - Standing At The Sunrise
DYEAR=2001
DGENRE=Blues
TTITLE0=I Never Knew
TTITLE1=Take It Back
TTITLE2=Standing At The Sunrise
TTITLE3=Into The Fire
TTITLE4=Table For One
TTITLE5=Blowout On "A" Street
TTITLE6=I Found Myself In You
TTITLE7=Two To Tangle
TTITLE8=Let's Get Right With Love
TTITLE9=Countdown
TTITLE10=Devils Lake
TTITLE11=So Close, Too Soon, Not Yet
EXTD=RECORDED AT DOGHOUSE STUDIOS, BURBANK, CALIFORNIA YEAR: 2001
EXTT0=
EXTT1=
EXTT2=
EXTT3=
EXTT4=
EXTT5=
EXTT6=
EXTT7=
EXTT8=
EXTT9=
EXTT10=
EXTT11=
PLAYORDER=
